Coordinates
version=1
nRows=19
nColumns=32
inDegrees=no

Units are S.I. units (second, meters, Newtons, ...)
If the header above contains a line with 'inDegrees', this indicates whether rotational values are in degrees (yes) or radians (no).

endheader
time	pelvis_tilt	pelvis_list	pelvis_rotation	pelvis_tx	pelvis_ty	pelvis_tz	hip_flexion_r	hip_adduction_r	hip_rotation_r	knee_angle_r	ankle_angle_r	subtalar_angle_r	mtp_angle_r	hip_flexion_l	hip_adduction_l	hip_rotation_l	knee_angle_l	ankle_angle_l	subtalar_angle_l	mtp_angle_l	lumbar_extension	lumbar_bending	lumbar_rotation	arm_flex_r	arm_add_r	arm_rot_r	elbow_flex_r	arm_flex_l	arm_add_l	arm_rot_l	elbow_flex_l
1.795	-0.233255	0.0687422	0.0252547	0.913679	0.999538	-0.292655	-0.334137	-0.0925366	-0.249971	0.574682	-0.64014	-0.377827	0.0149695	0.932289	0.00162284	-0.294792	0.493709	-0.0548646	0.206702	-0.0402661	0.0873927	-0.13619	0.229896	-0.441848	-0.310986	-0.0675553	2.38686	-1.11541	-0.349156	-0.263532	2.29081
1.8	-0.230986	0.059124	0.0254646	0.913684	0.998922	-0.292113	-0.327681	-0.0832428	-0.225476	0.634446	-0.637504	-0.422762	0.0149761	0.910366	-0.00330124	-0.333148	0.426074	-0.068904	0.258067	-0.0402397	0.0842638	-0.128717	0.226318	-0.447107	-0.315087	-0.0655453	2.38669	-1.11374	-0.345602	-0.26578	2.29244
1.805	-0.228234	0.0494162	0.0271357	0.913568	0.998167	-0.291664	-0.319111	-0.07285	-0.202462	0.697633	-0.637467	-0.46113	0.0149827	0.889984	-0.00747987	-0.374516	0.368445	-0.0815486	0.312433	-0.0402134	0.0797753	-0.121269	0.220453	-0.45304	-0.318426	-0.0637248	2.38415	-1.1095	-0.342513	-0.266803	2.29289
1.81	-0.225366	0.0401102	0.0303776	0.913301	0.997269	-0.291337	-0.308045	-0.0620129	-0.181916	0.763994	-0.639657	-0.492576	0.0149893	0.871686	-0.0104802	-0.417	0.321233	-0.0932426	0.367103	-0.040187	0.0743239	-0.114391	0.212344	-0.45966	-0.320906	-0.0620652	2.37922	-1.10275	-0.340075	-0.266694	2.29225
1.815	-0.222698	0.0316265	0.0351858	0.912855	0.996222	-0.291151	-0.294175	-0.0514012	-0.164628	0.833265	-0.643177	-0.517108	0.0149959	0.855756	-0.0120076	-0.458326	0.284248	-0.104777	0.419016	-0.0401606	0.0682628	-0.108538	0.202107	-0.466916	-0.322466	-0.0605414	2.37189	-1.09363	-0.338427	-0.265579	2.29065
1.82	-0.220441	0.0242712	0.0414539	0.912212	0.995026	-0.291109	-0.277357	-0.0416193	-0.151125	0.905092	-0.646812	-0.53507	0.0150025	0.842194	-0.0119519	-0.496132	0.256832	-0.116985	0.465219	-0.0401343	0.0618509	-0.104032	0.189912	-0.474708	-0.323082	-0.0591387	2.36218	-1.08231	-0.337668	-0.263587	2.28822
1.825	-0.218684	0.0182094	0.048999	0.911369	0.993681	-0.291198	-0.25766	-0.0331441	-0.141643	0.978994	-0.649262	-0.547094	0.0150091	0.830761	-0.0103991	-0.528265	0.238059	-0.130413	0.503282	-0.0401079	0.0552307	-0.101032	0.175966	-0.482904	-0.322766	-0.0578577	2.35012	-1.06898	-0.337865	-0.260839	2.2851
1.83	-0.217382	0.0134689	0.0575871	0.910336	0.992194	-0.291398	-0.235362	-0.0263024	-0.136132	1.05438	-0.649354	-0.554045	0.0150157	0.821036	-0.0076047	-0.553033	0.22693	-0.145115	0.531583	-0.0400816	0.0484275	-0.099535	0.160493	-0.491376	-0.321559	-0.0567178	2.33581	-1.05387	-0.339056	-0.257426	2.28143
1.835	-0.216377	0.00997999	0.0669462	0.909144	0.990578	-0.291678	-0.210924	-0.0212957	-0.134285	1.13059	-0.646208	-0.556951	0.0150223	0.812479	-0.00394286	-0.56941	0.222524	-0.160618	0.549444	-0.0400552	0.0413561	-0.0994203	0.143738	-0.500012	-0.319522	-0.0557518	2.31934	-1.03722	-0.341261	-0.25341	2.27732
1.84	-0.215409	0.00764214	0.0767724	0.907836	0.988852	-0.292007	-0.18493	-0.01826	-0.13559	1.20695	-0.639324	-0.556921	0.0150289	0.804493	0.000176744	-0.577108	0.224099	-0.17599	0.557076	-0.0400289	0.0338364	-0.100519	0.125965	-0.50873	-0.316734	-0.0549907	2.30083	-1.01928	-0.34448	-0.248832	2.27285
1.845	-0.21416	0.00639089	0.0867392	0.906462	0.987041	-0.292356	-0.158009	-0.0173266	-0.139384	1.28285	-0.628591	-0.55505	0.0150355	0.796472	0.00440274	-0.576489	0.231121	-0.189916	0.555353	-0.0400025	0.0256196	-0.102691	0.107452	-0.517473	-0.313281	-0.054444	2.2804	-1.00027	-0.348692	-0.243719	2.26808
1.85	-0.212302	0.00623266	0.0965137	0.905072	0.98517	-0.292705	-0.130744	-0.0186486	-0.144904	1.35778	-0.614234	-0.552314	0.0150422	0.787879	0.00850717	-0.568402	0.243283	-0.20073	0.545556	-0.0399762	0.016431	-0.105861	0.0884788	-0.526195	-0.30926	-0.054087	2.25816	-0.980401	-0.353854	-0.238093	2.26301
1.855	-0.20956	0.00723435	0.105781	0.903712	0.98326	-0.29304	-0.103567	-0.0223754	-0.151337	1.43137	-0.59672	-0.5495	0.0150488	0.778327	0.0124076	-0.553989	0.2605	-0.206427	0.529124	-0.0399498	0.00602767	-0.110025	0.0693028	-0.534856	-0.304775	-0.053864	2.23419	-0.959836	-0.359901	-0.231973	2.25761
1.86	-0.205769	0.00948466	0.11427	0.90241	0.981319	-0.293359	-0.0766869	-0.0286	-0.157855	1.50338	-0.576666	-0.547163	0.0150554	0.767641	0.0161494	-0.534544	0.282879	-0.20476	0.507487	-0.0399235	-0.00574459	-0.11521	0.050138	-0.543408	-0.299944	-0.0537019	2.20857	-0.938687	-0.366742	-0.22537	2.25179
1.865	-0.20091	0.0130406	0.121775	0.901181	0.979339	-0.293663	-0.0500386	-0.0373039	-0.163666	1.57364	-0.554742	-0.545605	0.015062	0.755893	0.0198643	-0.511421	0.310639	-0.19347	0.481951	-0.0398971	-0.0189042	-0.121429	0.0311358	-0.551798	-0.294889	-0.0535295	2.18136	-0.917008	-0.374271	-0.218295	2.24544
1.87	-0.195129	0.0178788	0.12817	0.900019	0.977297	-0.29396	-0.0232719	-0.0483157	-0.168038	1.64207	-0.531562	-0.544855	0.0150687	0.743382	0.0237228	-0.485953	0.343981	-0.170699	0.453572	-0.0398708	-0.0333081	-0.128636	0.0123753	-0.559964	-0.28974	-0.053294	2.15262	-0.894793	-0.382355	-0.210757	2.23841
1.875	-0.188716	0.0238672	0.133398	0.898891	0.975163	-0.29426	0.00422194	-0.0613	-0.170321	1.7086	-0.507598	-0.544682	0.0150753	0.730575	0.0278848	-0.459389	0.382932	-0.135491	0.423095	-0.0398444	-0.0486588	-0.13669	-0.00612767	-0.567837	-0.284631	-0.0529741	2.1224	-0.871995	-0.390837	-0.202766	2.23056
1.88	-0.182065	0.0307681	0.13746	0.897751	0.972922	-0.294569	0.0332396	-0.0757822	-0.169954	1.77314	-0.483145	-0.544639	0.015082	0.718013	0.0324794	-0.432772	0.427175	-0.0882569	0.39089	-0.0398181	-0.0645391	-0.145352	-0.0244011	-0.575343	-0.279698	-0.0525897	2.09078	-0.848524	-0.399531	-0.194334	2.22173
1.885	-0.175624	0.0382777	0.140407	0.896541	0.970573	-0.294886	0.0646673	-0.0912129	-0.166484	1.83556	-0.458331	-0.54411	0.0150887	0.706212	0.0376253	-0.406784	0.475938	-0.0309686	0.356952	-0.0397918	-0.0804682	-0.15432	-0.042505	-0.582408	-0.275064	-0.0522017	2.05785	-0.824271	-0.408236	-0.18548	2.21175
